<svg width="414" height="318" viewBox="0 0 414 318" fill="none" xmlns="http://www.w3.org/2000/svg">
<path d="M255 0C257.047 0 259.095 0.780975 260.657 2.34299L411.657 153.343C411.661 153.347 411.665 153.352 411.669 153.356C411.669 153.357 411.671 153.358 411.672 153.359C413.088 154.782 413.858 156.605 413.982 158.463C414.017 158.98 414.002 159.503 413.935 160.022C413.741 161.535 413.115 163.003 412.057 164.227C411.915 164.391 411.768 164.549 411.614 164.7L260.657 315.657C257.533 318.781 252.468 318.781 249.344 315.657C246.219 312.533 246.219 307.468 249.344 304.344L386.687 167L7.99969 167C3.5817 167 -0.000305176 163.418 -0.000305176 159C-0.000305176 154.582 3.5817 151 7.99969 151L386.687 151L249.344 13.657C247.782 12.094 247.001 10.048 247.001 8C247.001 5.952 247.782 3.905 249.344 2.34299C250.905 0.780975 252.953 0 255 0Z" fill="white"/>
</svg>
