<svg width="31" height="33" viewBox="0 0 31 33" fill="none" xmlns="http://www.w3.org/2000/svg">
<path d="M29.7118 4.72425C29.1955 4.27625 26.3763 1.695 25.8495 1.24C25.3263 0.78675 24.5265 0.75 23.921 0.75H7.07902C6.47527 0.75 5.67552 0.78675 5.15052 1.24C4.62377 1.695 1.80452 4.278 1.28827 4.72425C0.768523 5.17225 0.338023 5.8495 0.476273 6.81025C0.614523 7.7745 3.78377 30.717 3.86602 31.263C3.90944 31.5343 4.04676 31.7818 4.25402 31.9622C4.46128 32.1426 4.72531 32.2444 5.00002 32.25H26C26.275 32.2444 26.5392 32.1422 26.7465 31.9615C26.9538 31.7807 27.091 31.5329 27.134 31.2612C27.2163 30.717 30.3855 7.77275 30.5255 6.8085C30.662 5.8495 30.2315 5.17225 29.7118 4.72425V4.72425ZM15.5 19.9527C9.81602 19.9527 8.59977 11.9097 8.34777 10.2525H11.5625C12.0455 12.6692 13.1445 16.8045 15.5 16.8045C17.8555 16.8045 18.9563 12.6692 19.4375 10.2525H22.654C22.4003 11.9097 21.184 19.9527 15.5 19.9527V19.9527ZM3.54752 6.0105L6.75002 2.5H24.25L27.4525 6.0105H3.54752Z" fill="black"/>
</svg>
